<svg width="50" height="50" preserveAspectRatio="xMidYMid" viewBox="0 0 1024 1024" xmlns="http://www.w3.org/2000/svg">
<defs>
<linearGradient id="a" x2="0%" y2="100%">
<stop stop-color="#00ccbf" offset="0"/>
<stop stop-color="#00b265" offset="1"/>
</linearGradient>
<linearGradient id="c" x2="0%" y2="100%">
<stop stop-color="#151515" offset="0"/>
<stop stop-color="#353535" offset="1"/>
</linearGradient>
<linearGradient id="b" x2="0%" y2="100%">
<stop stop-color="#fff" offset=".3"/>
<stop stop-color="#9cc0b7" offset="1"/>
</linearGradient>
</defs>
<g fill-rule="evenodd">
<path fill="url(#a)" d="m357.01 2e-3h309.98c102.8 0 154.2 0 209.53 17.495 60.409 21.988 108 69.575 129.99 129.99 17.493 55.33 17.493 106.73 17.493 209.53v309.98c0 102.8 0 154.2-17.493 209.53-21.99 60.409-69.577 108-129.99 129.98-55.334 17.497-106.73 17.497-209.53 17.497h-309.98c-102.8 0-154.2 0-209.53-17.497-60.411-21.986-108-69.573-129.99-129.98-17.495-55.334-17.495-106.73-17.495-209.53v-309.98c0-102.8 0-154.2 17.495-209.53 21.988-60.411 69.575-108 129.99-129.99 55.33-17.495 106.73-17.495 209.53-17.495"/>
<path fill="url(#c)" d="m512.5 67c246.04 0 445.5 199.26 445.5 445.06 0 245.8-199.46 445.06-445.5 445.06s-445.5-199.26-445.5-445.06c0-245.8 199.46-445.06 445.5-445.06z"/>
<path fill="url(#b)" d="m697.87 765.87-74.694-103.5c46.911-34.305 77.384-89.713 77.384-152.24 0-104.14-84.504-188.56-188.75-188.56-104.24 0-188.74 84.42-188.74 188.56 0 62.801 30.741 118.42 78.001 152.69l-74.75 103.58c-79.46-57.457-131.16-150.86-131.16-256.35 0-174.67 141.74-316.26 316.58-316.26s316.58 141.6 316.58 316.26c0 105.16-51.391 198.32-130.44 255.82zm-185.44-332.14c42.062 0 76.161 34.065 76.161 76.085 0 42.021-34.099 76.085-76.161 76.085-42.063 0-76.161-34.064-76.161-76.085 0-42.02 34.098-76.085 76.161-76.085z"/>
</g>
</svg>