<svg width="50" height="50" version="1.1" id="图层_1" xmlns="http://www.w3.org/2000/svg" xmlns:xlink="http://www.w3.org/1999/xlink" x="0px" y="0px"
	 viewBox="0 0 512 512" xml:space="preserve">
<linearGradient id="SVGID_1_" gradientUnits="userSpaceOnUse" x1="-41.2083" y1="-45.221" x2="561.1257" y2="564.5041">
	<stop  offset="0" stop-color="#FFB768"/>
	<stop  offset="1" stop-color="#FF390F"/>
</linearGradient>
<path fill="url(#SVGID_1_)" d="M400.5,512.1h-288c-61.6,0-112-50.4-112-112v-288c0-61.6,50.4-112,112-112h288c61.6,0,112,50.4,112,112v288
	C512.5,461.7,462.1,512.1,400.5,512.1z"/>
<g>
	<path id="XMLID_8_" fill="white" d="M283.9,171.2c-9.5,0-17.2,7.3-17.2,16.3V227c0,5-4.6,9-10.3,9c-5.7,0-10.3-4-10.3-9v-53.7
		c0-9-7.7-16.3-17.2-16.3c-9.5,0-17.2,7.3-17.2,16.3v43c0,5-4.6,9-10.3,9c-5.7,0-10.3-4-10.3-9v-15.6c0-9-7.7-16.3-17.2-16.3
		c-9.5,0-17.2,7.3-17.2,16.3v36.9c0,5-4.6,9-10.3,9c-5.7,0-10.3-4-10.3-9v-4.3c0-9.4-7.7-17.1-17.2-17.1c-9.5,0-17.2,7.6-17.2,17.1
		v51.2c0,9.4,7.7,17.1,17.2,17.1c9.5,0,17.2-7.7,17.2-17.1v-4.3c0-5,4.6-9,10.3-9c5.7,0,10.3,4,10.3,9v58.6c0,9,7.7,16.3,17.2,16.3
		c9.5,0,17.2-7.3,17.2-16.3V259c0-5,4.6-9,10.3-9c5.7,0,10.3,4,10.3,9v40.2c0,9,7.7,16.3,17.2,16.3c9.5,0,17.2-7.3,17.2-16.3v-29.6
		c0-5,4.6-9,10.3-9c5.7,0,10.3,4,10.3,9v31.6c0,9,7.7,16.3,17.2,16.3c9.5,0,17.2-7.3,17.2-16.3V187.5
		C301.1,178.5,293.4,171.2,283.9,171.2"/>
	<path id="XMLID_7_" fill="white" d="M338.9,215.3c-9.5,0-17.2,7.3-17.2,16.3v65c0,9,7.7,16.3,17.2,16.3c9.5,0,17.2-7.3,17.2-16.3
		v-65C356.1,222.6,348.4,215.3,338.9,215.3"/>
	<path id="XMLID_6_" fill="white" d="M393.8,248.3c-9.5,0-17.2,7.3-17.2,16.3v16.2c0,9,7.7,16.3,17.2,16.3c9.5,0,17.2-7.3,17.2-16.3
		v-16.2C411,255.6,403.3,248.3,393.8,248.3"/>
</g>
</svg>