<svg xmlns="http://www.w3.org/2000/svg" viewBox="0 0 64 64"><g fill="none" fill-rule="evenodd"><path d="M0 0h64v64H0z"/><circle cx="32" cy="32" r="30.9" fill="#FFF" fill-rule="nonzero"/><path fill="#FFF" fill-opacity=".2" fill-rule="nonzero" d="M32 1.4a31 31 0 0131 30.8V32a31 31 0 00-62 0v.2A31 31 0 0132 1.4z"/><path fill="#263238" fill-opacity=".1" fill-rule="nonzero" d="M32 62.6a31 31 0 0031-30.8v.2a31 31 0 01-62 0v-.2a31 31 0 0031 30.8z"/><g fill-rule="nonzero" transform="translate(10.9 10.9)"><path fill="#FAB908" d="M18.5 13.4v15.4h5.2V13.4z"/><circle cx="2.6" cy="19.7" r="2.6" fill="#0066D9"/><circle cx="2.6" cy="22.5" r="2.6" fill="#0066D9"/><path fill="#0066D9" d="M0 19.7h5.3v2.9H0z"/><circle cx="39.6" cy="22.5" r="2.6" fill="#4285F4"/><circle cx="39.6" cy="19.7" r="2.6" fill="#4285F4"/><path fill="#4285F4" d="M42.2 22.5H37v-2.9h5.3z"/><circle cx="11.7" cy="28.3" r="2.6" fill="#EA4335"/><circle cx="11.7" cy="31.2" r="2.6" fill="#EA4335"/><path fill="#EA4335" d="M9.1 28.3h5.3v2.9H9.1z"/><circle cx="11.7" cy="11" r="2.6" fill="#EA4335"/><circle cx="11.7" cy="20.4" r="2.6" fill="#EA4335"/><path fill="#EA4335" d="M9.1 11h5.3v9.4H9.1z"/><circle cx="30.4" cy="13.9" r="2.6" fill="#34A853"/><circle cx="30.4" cy="11" r="2.6" fill="#34A853"/><path fill="#34A853" d="M33.1 14h-5.3v-3h5.3z"/><circle cx="21.1" cy="5.5" r="2.6" fill="#FAB908"/><circle cx="21.1" cy="2.6" r="2.6" fill="#FAB908"/><path fill="#FAB908" d="M23.7 5.6h-5.3v-3h5.3z"/><circle cx="21.1" cy="39.6" r="2.6" fill="#FAB908"/><circle cx="21.1" cy="36.7" r="2.6" fill="#FAB908"/><path fill="#FAB908" d="M23.7 39.5h-5.3v-2.9h5.3z"/><circle cx="30.4" cy="31.2" r="2.6" fill="#34A853"/><circle cx="30.4" cy="21.8" r="2.6" fill="#34A853"/><path fill="#34A853" d="M33.1 31.2h-5.3v-9.4h5.3z"/><circle cx="21.1" cy="13.4" r="2.6" fill="#FAB908"/><circle cx="21.1" cy="28.8" r="2.6" fill="#FAB908"/></g></g></svg>