<svg width="42" height="42" xmlns="http://www.w3.org/2000/svg">
 <g>
  <title>Layer 1</title>
  <rect fill="#ffffff" stroke="null" x="27.68743" y="9.39584" width="7.74993" height="16.74985" id="svg_7"/>
  <rect fill="#ffffff" stroke="null" x="6.56262" y="9.39584" width="9.37492" height="16.37486" id="svg_3"/>
  <rect fill="#ffffff" x="4.56264" y="11.64582" width="33.24971" height="11.7499" id="svg_2" stroke="null"/>
  <path d="m12.19575,6.60739c-5.89456,0 -10.67041,4.77558 -10.67041,10.66967c0,3.73962 2.36809,6.43555 4.84222,8.93042l9.67413,9.14617c0.50689,0.47923 1.34089,0.11956 1.34089,-0.57803l0,-7.12563c0,-2.06164 1.66931,-3.73362 3.73033,-3.73696c2.06083,0.00339 3.73107,1.67533 3.73107,3.73696l0,7.12563c0,0.69761 0.83399,1.05726 1.34089,0.57803l9.67339,-9.14617c2.47422,-2.49486 4.84295,-5.19094 4.84295,-8.93042c0,-5.89384 -4.77498,-10.66927 -10.66967,-10.66967l-0.00075,0c-3.69874,0.00026 -7.00349,1.95967 -8.91716,4.8216c-1.91385,-2.86198 -5.21848,-4.8216 -8.9179,-4.8216l0.00002,0zm-2.55071,3.25613c0.23752,0.00792 0.46625,0.13042 0.6016,0.34682c0.21716,0.34496 0.11267,0.80195 -0.23342,1.01911c-1.65696,1.03866 -2.95422,3.47309 -2.95422,5.54175l0,0.03608c0,2.54821 1.44809,5.12347 4.30395,7.65359c0.30651,0.27145 0.33438,0.73876 0.06407,1.04414c-0.14628,0.16513 -0.35015,0.24815 -0.55373,0.24815c-0.17456,0 -0.3494,-0.06041 -0.49041,-0.18483c-3.18574,-2.82418 -4.80172,-5.77137 -4.80172,-8.76106l0,-0.03608c0,-2.56895 1.56831,-5.49055 3.64639,-6.79501c0.12969,-0.08106 0.27538,-0.11756 0.41751,-0.11266l-0.00002,0zm22.93647,0c0.14251,-0.0049 0.28782,0.03159 0.41751,0.11266c2.07846,1.30446 3.64639,4.22606 3.64639,6.79501l0,0.03608c0,2.98969 -1.6156,5.93687 -4.80172,8.76106c-0.14062,0.12441 -0.31585,0.18483 -0.49041,0.18483c-0.20321,0 -0.40745,-0.08302 -0.55373,-0.24815c-0.27107,-0.30538 -0.24281,-0.77269 0.06333,-1.04414c2.85585,-2.53012 4.30395,-5.10538 4.30395,-7.65359l0,-0.03608c0,-2.06866 -1.29764,-4.50382 -2.95422,-5.54249c-0.34609,-0.21716 -0.44984,-0.6734 -0.23269,-1.01837c0.13535,-0.2164 0.36446,-0.3389 0.60159,-0.34682zm-17.54935,1.8902c0.28728,-0.02413 0.57358,0.12178 0.71647,0.39247c0.19001,0.36155 0.05193,0.8081 -0.31,0.99849c-1.48127,0.77928 -2.40335,2.30021 -2.40712,3.97112c0.00415,1.81794 1.15608,3.68099 2.86733,4.63972c0.35665,0.19868 0.48329,0.64958 0.28423,1.00585c-0.13535,0.24166 -0.38641,0.37848 -0.64504,0.37848c-0.12328,0 -0.24731,-0.03016 -0.36154,-0.09425c-2.15989,-1.20945 -3.61414,-3.58546 -3.62356,-5.91802l0,-0.02209c0.00867,-2.21833 1.23149,-4.23554 3.19722,-5.2693c0.09048,-0.0475 0.18626,-0.07418 0.28202,-0.08247l0,0l-0.00001,0zm12.16224,0c0.09576,0.00829 0.19192,0.03495 0.28202,0.08247c1.96573,1.03376 3.18817,3.05097 3.19722,5.2693l0,0.02209c-0.00943,2.33256 -1.46367,4.70857 -3.62356,5.91802c-0.11423,0.06409 -0.23826,0.09425 -0.36155,0.09425c-0.25863,0 -0.51005,-0.13682 -0.64578,-0.37848c-0.19906,-0.35627 -0.07168,-0.80717 0.28497,-1.00585c1.71163,-0.95874 2.86208,-2.82178 2.8666,-4.63972c-0.00377,-1.67091 -0.92473,-3.19184 -2.40638,-3.97112c-0.36156,-0.19039 -0.50113,-0.63694 -0.31074,-0.99849c0.14251,-0.27069 0.4303,-0.4166 0.7172,-0.39247l0,0zm-6.08149,2.70166c1.77157,0.00113 3.20753,1.43743 3.20753,3.209s-1.43595,3.20787 -3.20753,3.209c-1.7712,-0.00113 -3.20679,-1.43743 -3.20679,-3.209s1.4356,-3.20787 3.20679,-3.209z" fill="#c6002b" stroke-width="1.25" id="svg_1"/>
 </g>

</svg>