<svg height="66.145836mm" viewBox="0 0 66.145836 66.145836" width="66.145836mm" xmlns="http://www.w3.org/2000/svg" xmlns:xlink="http://www.w3.org/1999/xlink"><filter id="a" color-interpolation-filters="sRGB" height="1.024" width="1.024" x="-.012" y="-.012"><feGaussianBlur stdDeviation="1.0247852"/></filter><linearGradient id="b" gradientUnits="userSpaceOnUse" x1="300.92603" x2="338.55325" y1="150.41164" y2="199.24927"><stop offset="0" stop-color="#ff5e50"/><stop offset=".24903756" stop-color="#fe5c6c"/><stop offset=".37651777" stop-color="#e3658a"/><stop offset=".49695423" stop-color="#b87eb0"/><stop offset=".626674" stop-color="#916cff"/><stop offset=".76279801" stop-color="#70bcfb" stop-opacity=".919192"/><stop offset="1" stop-color="#21c7fe"/></linearGradient><g transform="translate(-284.1986 -143.22636)"><circle cx="317.27151" cy="176.29929" fill="url(#b)" r="33.072918"/><path d="m125 22.521484a102.47919 102.47919 0 0 0 -102.478516 102.478516 102.47919 102.47919 0 0 0 102.478516 102.47852 102.47919 102.47919 0 0 0 102.47852-102.47852 102.47919 102.47919 0 0 0 -102.47852-102.478516zm51.36133 20.337891c2.42286-.0022 4.20235 1.357457 4.89453 3.742187.24113.830778.30026 16.047448.23828 60.599608l-.082 59.49024-.625 2.21875c-2.12141 7.54526-7.30222 12.88653-14.64063 15.08984-5.18596 1.55709-12.76432 2.13504-16.48632 1.25781-3.31299-.78081-5.7142-2.16534-8.3418-4.80859-3.82197-3.84465-5.51666-7.7724-5.52539-12.79883-.004-2.81151.49419-4.92819 1.82617-7.75195 1.88334-3.99254 4.32069-6.39621 8.70898-8.58985 3.51383-1.75649 6.65497-2.66708 15.83204-4.58398 6.03144-1.25983 7.50027-1.80024 8.67578-3.19727 1.6165-1.92109 1.58089-1.20752 1.49804-31.64843-.0718-26.447285-.10097-27.900483-.58203-28.634769-.71338-1.08858-2.20018-1.650399-3.77148-1.425782-1.66912.238489-61.01366 12.245905-62.49414 12.644532-1.64523.443036-2.83619 1.751295-3.21875 3.535156-.22564 1.052523-.3149 12.722193-.31641 41.457033-.002 44.13301.034 43.13213-1.73047 47.82226-.503506 1.33796-1.406159 3.18241-2.005856 4.09766-1.515855 2.3133-4.429713 5.12823-6.695313 6.46875-5.419426 3.20659-16.01609 4.85598-21.675781 3.37305-5.996598-1.57119-10.450921-5.65365-12.458984-11.41407-.962192-2.76015-1.188658-7.30199-.513672-10.33593.706431-3.17515 2.340954-6.19997 4.546875-8.41602 3.885392-3.90331 8.47793-5.71776 20.84375-8.23633 2.669404-.54368 5.422687-1.17575 6.11914-1.40429 1.469405-.48223 3.063065-1.99671 3.78125-3.59375.472063-1.04977.507447-3.61313.638672-47.70313l.138672-46.593749.648438-1.316406c.765618-1.554671 2.37963-3.018665 4.007812-3.634766 1.052107-.398097 62.683027-12.960688 73.138677-14.908203 2.36435-.440428 4.89629-.800101 5.62695-.800781z" filter="url(#a)" opacity=".192" transform="matrix(.26458334 0 0 .26458334 284.44715 143.43616)"/><path d="m125 10.5a114.5 114.5 0 0 0 -114.5 114.5 114.5 114.5 0 0 0 114.5 114.5 114.5 114.5 0 0 0 114.5-114.5 114.5 114.5 0 0 0 -114.5-114.5zm51.36133 32.359375c2.42286-.00223 4.20235 1.357457 4.89453 3.742187.24113.830778.30026 16.047448.23828 60.599608l-.08203 59.49024-.625 2.21875c-2.12141 7.54526-7.30222 12.88653-14.64063 15.08984-5.18596 1.55709-12.76432 2.13504-16.48632 1.25781-3.31299-.78081-5.7142-2.16534-8.3418-4.80859-3.82197-3.84465-5.51666-7.7724-5.52539-12.79883-.00378-2.81151.49419-4.92819 1.82617-7.75195 1.88334-3.99254 4.32069-6.39621 8.70898-8.58985 3.51383-1.75649 6.65497-2.66708 15.83204-4.58398 6.03144-1.25983 7.50027-1.80024 8.67578-3.19727 1.6165-1.92109 1.58089-1.20752 1.49804-31.64843-.07181-26.447285-.10097-27.900483-.58203-28.634769-.71338-1.08858-2.20018-1.650399-3.77148-1.425782-1.66912.238489-61.01366 12.245905-62.49414 12.644532-1.64523.443036-2.83619 1.751295-3.21875 3.535156-.22564 1.052523-.3149 12.722193-.31641 41.457033-.00193 44.13301.03401 43.13213-1.73047 47.82226-.503506 1.33796-1.406159 3.18241-2.005856 4.09766-1.515855 2.3133-4.429713 5.12823-6.695313 6.46875-5.419426 3.20659-16.01609 4.85598-21.675781 3.37305-5.996598-1.57119-10.450921-5.65365-12.458984-11.41407-.962192-2.76015-1.188658-7.30199-.513672-10.33593.706431-3.17515 2.340954-6.19997 4.546875-8.41602 3.885392-3.90331 8.47793-5.71776 20.84375-8.23633 2.669404-.54368 5.422687-1.17575 6.11914-1.40429 1.469405-.48223 3.063065-1.99671 3.78125-3.59375.472063-1.04977.507447-3.61313.638672-47.70313l.138672-46.593749.648438-1.316406c.765618-1.554671 2.37963-3.018665 4.007812-3.634766 1.052107-.398097 62.683027-12.960688 73.138677-14.908203 2.36435-.440428 4.89629-.800101 5.62695-.800781z" fill="#fff" transform="matrix(.26458334 0 0 .26458334 284.1986 143.22636)"/></g></svg>