<?xml version="1.0" encoding="UTF-8" ?>
<!DOCTYPE svg PUBLIC "-//W3C//DTD SVG 1.1//EN" "http://www.w3.org/Graphics/SVG/1.1/DTD/svg11.dtd">
<svg width="952pt" height="952pt" viewBox="0 0 952 952" version="1.1" xmlns="http://www.w3.org/2000/svg">
<path fill="#c8122a" opacity="1.00" d=" M 454.42 5.48 C 602.24 -2.60 750.83 65.53 842.69 181.31 C 930.34 289.18 965.15 436.94 935.84 572.67 C 904.57 725.54 791.49 858.33 645.59 913.63 C 579.40 939.96 506.88 949.57 436.03 943.65 C 305.89 933.98 182.18 865.45 102.95 762.05 C 62.17 709.07 32.96 647.34 17.64 582.27 C -11.94 456.93 12.54 319.74 85.20 213.21 C 166.20 90.78 307.56 10.67 454.42 5.48 M 560.34 118.32 C 535.74 122.48 529.96 160.70 553.42 170.52 C 655.94 201.17 741.04 283.66 774.73 385.24 C 777.99 399.20 788.32 413.77 803.97 414.05 C 822.18 415.89 837.67 396.95 833.35 379.42 C 798.77 262.49 705.78 164.92 590.99 124.03 C 581.17 120.78 570.89 115.81 560.34 118.32 M 406.40 172.49 C 324.26 189.30 251.40 243.74 208.28 315.23 C 154.34 403.11 148.74 518.37 193.88 611.07 C 239.58 709.25 339.85 779.43 447.98 787.73 C 514.97 794.14 584.00 777.74 641.06 742.05 C 709.93 699.29 761.54 628.90 779.74 549.73 C 786.02 520.15 765.71 488.96 737.66 479.32 C 710.63 468.90 677.41 479.11 660.99 503.00 C 649.35 519.03 647.16 539.51 637.80 556.72 C 610.56 612.79 552.61 652.02 490.43 656.51 C 412.36 663.97 333.43 613.91 306.76 540.19 C 286.75 488.12 292.47 426.72 322.73 379.75 C 346.77 341.10 386.16 312.33 430.33 301.24 C 462.54 292.87 483.73 256.97 476.25 224.69 C 470.32 193.18 438.54 168.67 406.40 172.49 M 546.42 209.49 C 533.90 210.94 523.30 221.38 521.68 233.88 C 519.58 247.42 528.72 261.04 541.49 265.42 C 606.75 289.80 659.89 343.80 683.89 409.13 C 688.18 423.24 704.19 432.91 718.58 428.63 C 733.77 425.11 743.87 407.57 738.27 392.77 C 710.63 312.75 646.70 246.25 568.16 214.81 C 561.15 212.35 554.09 208.46 546.42 209.49 M 528.40 305.57 C 503.77 308.29 496.37 346.12 518.83 357.15 C 552.15 372.93 577.96 401.22 593.94 434.11 C 609.26 458.83 652.27 440.72 644.63 412.26 C 629.49 371.39 597.59 337.88 560.77 315.26 C 551.12 309.33 540.11 303.59 528.40 305.57 Z" />
<path fill="#ffffff" opacity="1.00" d=" M 560.34 118.32 C 570.89 115.81 581.17 120.78 590.99 124.03 C 705.78 164.92 798.77 262.49 833.35 379.42 C 837.67 396.95 822.18 415.89 803.97 414.05 C 788.32 413.77 777.99 399.20 774.73 385.24 C 741.04 283.66 655.94 201.17 553.42 170.52 C 529.96 160.70 535.74 122.48 560.34 118.32 Z" />
<path fill="#ffffff" opacity="1.00" d=" M 406.40 172.49 C 438.54 168.67 470.32 193.18 476.25 224.69 C 483.73 256.97 462.54 292.87 430.33 301.24 C 386.16 312.33 346.77 341.10 322.73 379.75 C 292.47 426.72 286.75 488.12 306.76 540.19 C 333.43 613.91 412.36 663.97 490.43 656.51 C 552.61 652.02 610.56 612.79 637.80 556.72 C 647.16 539.51 649.35 519.03 660.99 503.00 C 677.41 479.11 710.63 468.90 737.66 479.32 C 765.71 488.96 786.02 520.15 779.74 549.73 C 761.54 628.90 709.93 699.29 641.06 742.05 C 584.00 777.74 514.97 794.14 447.98 787.73 C 339.85 779.43 239.58 709.25 193.88 611.07 C 148.74 518.37 154.34 403.11 208.28 315.23 C 251.40 243.74 324.26 189.30 406.40 172.49 Z" />
<path fill="#ffffff" opacity="1.00" d=" M 546.42 209.49 C 554.09 208.46 561.15 212.35 568.16 214.81 C 646.70 246.25 710.63 312.75 738.27 392.77 C 743.87 407.57 733.77 425.11 718.58 428.63 C 704.19 432.91 688.18 423.24 683.89 409.13 C 659.89 343.80 606.75 289.80 541.49 265.42 C 528.72 261.04 519.58 247.42 521.68 233.88 C 523.30 221.38 533.90 210.94 546.42 209.49 Z" />
<path fill="#ffffff" opacity="1.00" d=" M 528.40 305.57 C 540.11 303.59 551.12 309.33 560.77 315.26 C 597.59 337.88 629.49 371.39 644.63 412.26 C 652.27 440.72 609.26 458.83 593.94 434.11 C 577.96 401.22 552.15 372.93 518.83 357.15 C 496.37 346.12 503.77 308.29 528.40 305.57 Z" />
</svg>
