<?xml version="1.0" encoding="UTF-8" ?>
<!DOCTYPE svg PUBLIC "-//W3C//DTD SVG 1.1//EN" "http://www.w3.org/Graphics/SVG/1.1/DTD/svg11.dtd">
<svg width="785pt" height="785pt" viewBox="0 0 785 785" version="1.1" xmlns="http://www.w3.org/2000/svg">
<g id="#ffffffff">
<path fill="#ffffff" opacity="1.00" d=" M 387.62 476.54 C 407.35 474.61 426.88 483.56 440.29 497.73 C 444.68 503.18 448.39 509.19 451.48 515.48 C 456.27 526.46 456.51 538.75 455.77 550.51 C 452.67 567.32 443.48 583.50 428.97 592.97 C 420.39 599.18 410.12 603.19 399.52 603.87 C 392.06 604.32 384.46 604.46 377.11 602.98 C 368.07 600.72 359.72 596.20 352.10 590.91 C 343.15 583.55 336.32 573.74 332.02 563.01 C 325.52 545.40 326.67 524.72 336.66 508.63 C 339.89 503.66 342.95 498.40 347.52 494.51 C 353.44 489.22 360.01 484.55 367.24 481.22 C 373.81 478.89 380.69 477.33 387.62 476.54 Z" />
</g>
<g id="#252027ff">
<path fill="#252027" opacity="1.00" d=" M 54.62 4.52 C 67.71 3.50 80.85 4.07 93.96 4.01 C 295.68 3.99 497.39 4.01 699.11 4.00 C 708.91 4.02 718.73 3.67 728.54 4.10 C 737.54 5.00 745.88 8.85 753.57 13.41 C 766.65 22.68 777.38 36.62 779.76 52.80 C 780.46 64.15 779.90 75.53 779.99 86.90 C 780.02 298.56 779.97 510.23 780.02 721.89 C 780.00 729.40 779.31 737.19 775.92 744.02 C 772.20 752.89 766.55 760.99 759.06 767.08 C 749.69 774.14 738.82 780.34 726.68 779.99 C 503.48 780.01 280.29 779.99 57.09 780.00 C 37.59 779.14 20.14 765.75 11.04 748.97 C 7.38 743.00 5.85 736.05 4.72 729.24 C 3.44 715.54 4.08 701.76 4.00 688.04 C 3.99 488.01 4.01 287.98 3.99 87.95 C 4.07 77.40 3.64 66.85 4.19 56.32 C 6.92 30.47 28.84 7.92 54.62 4.52 M 385.52 125.58 C 348.80 126.29 312.18 132.27 277.09 143.09 C 253.17 150.93 229.90 160.77 207.76 172.75 C 175.44 191.19 145.23 213.53 119.23 240.23 C 102.25 258.12 86.29 277.09 72.89 297.84 C 70.88 301.23 68.59 304.54 67.20 308.26 C 63.00 319.24 64.98 332.06 71.08 341.95 C 75.77 350.65 84.58 356.48 93.91 359.23 C 99.85 360.80 106.14 360.01 112.17 359.49 C 117.38 358.78 122.05 356.12 126.47 353.43 C 131.42 350.10 134.87 345.07 138.33 340.32 C 143.83 331.93 149.92 323.96 155.99 315.99 C 191.45 273.12 238.13 238.95 291.00 221.02 C 305.71 215.25 321.17 211.84 336.58 208.57 C 355.78 204.75 375.42 203.55 394.97 203.91 C 414.57 203.70 434.06 206.26 453.31 209.69 C 467.87 212.62 482.33 216.35 496.16 221.83 C 502.13 224.24 508.21 226.34 514.12 228.89 C 530.11 235.88 545.33 244.54 559.98 254.02 C 589.87 273.36 615.56 298.72 636.85 327.16 C 642.91 335.09 647.39 344.26 654.90 351.04 C 662.80 357.58 673.22 361.41 683.56 359.92 C 691.64 359.95 699.07 356.12 705.37 351.38 C 714.32 343.70 719.81 331.99 719.51 320.16 C 718.92 314.77 718.12 309.22 715.69 304.33 C 704.23 285.04 690.06 267.55 675.19 250.82 C 668.70 243.97 661.89 237.44 655.28 230.73 C 644.47 219.74 632.39 210.13 620.01 200.99 C 598.63 184.40 574.98 170.92 550.48 159.52 C 529.60 150.43 508.23 142.18 486.00 137.01 C 471.02 133.43 455.95 129.99 440.61 128.42 C 422.36 126.09 403.92 124.75 385.52 125.58 M 389.29 266.44 C 361.60 267.23 333.73 271.67 307.88 281.89 C 292.08 287.87 276.84 295.44 262.71 304.71 C 248.34 314.37 234.44 324.90 222.26 337.26 C 211.97 348.09 202.39 359.63 194.05 372.02 C 190.85 376.82 187.78 381.87 186.39 387.53 C 184.12 393.93 185.30 400.77 186.64 407.22 C 189.65 419.81 200.02 429.84 212.05 434.07 C 225.42 438.73 241.12 434.93 251.31 425.22 C 257.79 417.95 262.67 409.42 269.05 402.05 C 278.07 391.42 288.44 381.92 299.72 373.72 C 325.63 356.15 356.45 344.75 388.00 344.89 C 400.37 344.93 412.84 345.42 424.97 348.03 C 454.08 353.58 480.93 368.41 502.69 388.31 C 511.25 396.82 519.23 405.97 525.98 416.01 C 528.83 420.36 532.25 424.34 536.28 427.65 C 547.21 436.49 563.05 438.62 575.90 432.89 C 585.26 428.33 593.72 420.70 597.01 410.60 C 600.39 399.91 599.95 387.56 594.15 377.77 C 584.88 361.99 572.85 347.97 559.80 335.21 C 515.30 290.62 452.28 265.15 389.29 266.44 M 386.56 418.47 C 363.94 419.60 341.47 426.75 323.00 440.01 C 310.16 448.20 299.63 459.56 291.08 472.08 C 283.86 482.04 278.83 493.44 275.15 505.14 C 266.96 530.25 268.71 557.90 277.35 582.65 C 282.02 594.55 288.24 605.83 295.98 616.02 C 306.11 628.26 318.09 639.21 332.03 646.96 C 345.46 654.30 360.08 659.76 375.30 661.74 C 388.91 663.81 402.78 662.61 416.27 660.30 C 437.86 656.37 457.82 645.63 474.23 631.24 C 494.25 613.12 507.71 588.29 512.91 561.87 C 514.47 551.47 514.27 540.89 513.80 530.43 C 512.53 508.72 504.34 487.76 492.07 469.94 C 468.67 436.47 427.48 415.81 386.56 418.47 Z" />
</g>
<g id="#8dc742ff">
<path fill="#8dc742" opacity="1.00" d=" M 385.52 125.58 C 403.92 124.75 422.36 126.09 440.61 128.42 C 455.95 129.99 471.02 133.43 486.00 137.01 C 508.23 142.18 529.60 150.43 550.48 159.52 C 574.98 170.92 598.63 184.40 620.01 200.99 C 632.39 210.13 644.47 219.74 655.28 230.73 C 661.89 237.44 668.70 243.97 675.19 250.82 C 690.06 267.55 704.23 285.04 715.69 304.33 C 718.12 309.22 718.92 314.77 719.51 320.16 C 719.81 331.99 714.32 343.70 705.37 351.38 C 699.07 356.12 691.64 359.95 683.56 359.92 C 673.22 361.41 662.80 357.58 654.90 351.04 C 647.39 344.26 642.91 335.09 636.85 327.16 C 615.56 298.72 589.87 273.36 559.98 254.02 C 545.33 244.54 530.11 235.88 514.12 228.89 C 508.21 226.34 502.13 224.24 496.16 221.83 C 482.33 216.35 467.87 212.62 453.31 209.69 C 434.06 206.26 414.57 203.70 394.97 203.91 C 375.42 203.55 355.78 204.75 336.58 208.57 C 321.17 211.84 305.71 215.25 291.00 221.02 C 238.13 238.95 191.45 273.12 155.99 315.99 C 149.92 323.96 143.83 331.93 138.33 340.32 C 134.87 345.07 131.42 350.10 126.47 353.43 C 122.05 356.12 117.38 358.78 112.17 359.49 C 106.14 360.01 99.85 360.80 93.91 359.23 C 84.58 356.48 75.77 350.65 71.08 341.95 C 64.98 332.06 63.00 319.24 67.20 308.26 C 68.59 304.54 70.88 301.23 72.89 297.84 C 86.29 277.09 102.25 258.12 119.23 240.23 C 145.23 213.53 175.44 191.19 207.76 172.75 C 229.90 160.77 253.17 150.93 277.09 143.09 C 312.18 132.27 348.80 126.29 385.52 125.58 Z" />
<path fill="#8dc742" opacity="1.00" d=" M 389.29 266.44 C 452.28 265.15 515.30 290.62 559.80 335.21 C 572.85 347.97 584.88 361.99 594.15 377.77 C 599.95 387.56 600.39 399.91 597.01 410.60 C 593.72 420.70 585.26 428.33 575.90 432.89 C 563.05 438.62 547.21 436.49 536.28 427.65 C 532.25 424.34 528.83 420.36 525.98 416.01 C 519.23 405.97 511.25 396.82 502.69 388.31 C 480.93 368.41 454.08 353.58 424.97 348.03 C 412.84 345.42 400.37 344.93 388.00 344.89 C 356.45 344.75 325.63 356.15 299.72 373.72 C 288.44 381.92 278.07 391.42 269.05 402.05 C 262.67 409.42 257.79 417.95 251.31 425.22 C 241.12 434.93 225.42 438.73 212.05 434.07 C 200.02 429.84 189.65 419.81 186.64 407.22 C 185.30 400.77 184.12 393.93 186.39 387.53 C 187.78 381.87 190.85 376.82 194.05 372.02 C 202.39 359.63 211.97 348.09 222.26 337.26 C 234.44 324.90 248.34 314.37 262.71 304.71 C 276.84 295.44 292.08 287.87 307.88 281.89 C 333.73 271.67 361.60 267.23 389.29 266.44 Z" />
<path fill="#8dc742" opacity="1.00" d=" M 386.56 418.47 C 427.48 415.81 468.67 436.47 492.07 469.94 C 504.34 487.76 512.53 508.72 513.80 530.43 C 514.27 540.89 514.47 551.47 512.91 561.87 C 507.71 588.29 494.25 613.12 474.23 631.24 C 457.82 645.63 437.86 656.37 416.27 660.30 C 402.78 662.61 388.91 663.81 375.30 661.74 C 360.08 659.76 345.46 654.30 332.03 646.96 C 318.09 639.21 306.11 628.26 295.98 616.02 C 288.24 605.83 282.02 594.55 277.35 582.65 C 268.71 557.90 266.96 530.25 275.15 505.14 C 278.83 493.44 283.86 482.04 291.08 472.08 C 299.63 459.56 310.16 448.20 323.00 440.01 C 341.47 426.75 363.94 419.60 386.56 418.47 M 387.62 476.54 C 380.69 477.33 373.81 478.89 367.24 481.22 C 360.01 484.55 353.44 489.22 347.52 494.51 C 342.95 498.40 339.89 503.66 336.66 508.63 C 326.67 524.72 325.52 545.40 332.02 563.01 C 336.32 573.74 343.15 583.55 352.10 590.91 C 359.72 596.20 368.07 600.72 377.11 602.98 C 384.46 604.46 392.06 604.32 399.52 603.87 C 410.12 603.19 420.39 599.18 428.97 592.97 C 443.48 583.50 452.67 567.32 455.77 550.51 C 456.51 538.75 456.27 526.46 451.48 515.48 C 448.39 509.19 444.68 503.18 440.29 497.73 C 426.88 483.56 407.35 474.61 387.62 476.54 Z" />
</g>
</svg>
