<?xml version="1.0" encoding="utf-8"?>
<svg version="1.1" id="Layer_1"
xmlns="http://www.w3.org/2000/svg"
xmlns:xlink="http://www.w3.org/1999/xlink"
width="512px" height="512px"
xml:space="preserve">
<g id="PathID_93" transform="matrix(4.97959, 0, 0, 4.97959, 255, 255.5)" opacity="1">
<path style="fill:#5285E0;fill-opacity:1" d="M36 -36.1Q51 -21.1 51 0Q51 21.1 36 36Q21.1 51 0 51Q-21.1 51 -36.1 36Q-51 21.1 -51 0Q-51 -21.1 -36.1 -36.1Q-21.1 -51 0 -51Q21.1 -51 36 -36.1" />
</g>
<g id="PathID_94" transform="matrix(4.97959, 0, 0, 4.97959, 255, 255.5)" opacity="1">
</g>
<g id="PathID_95" transform="matrix(-0.110203, 19.0817, -19.0817, -0.110203, 486.1, 28.4)" opacity="1">
<path style="fill:#FFFFFF;fill-opacity:1" d="M12 2Q12.95 2 13.95 2.15Q14.9 2.35 15.8 2.75Q16.7 3.1 17.5 3.65Q18.3 4.2 19.05 4.9L17.65 6.35Q17.05 5.75 16.4 5.35Q15.75 4.9 15.05 4.6Q14.3 4.3 13.55 4.15Q12.75 4 12 4Q11.15 4 10.4 4.1Q9.6 4.25 8.9 4.55Q8.15 4.85 7.5 5.3Q6.85 5.75 6.35 6.35L4.9 4.9Q5.6 4.2 6.4 3.65Q7.25 3.1 8.15 2.75Q9.05 2.35 10 2.15Q11 2 12 2M3.65 6.5L5.1 7.9Q4.8 8.35 4.6 8.85L4.25 9.85Q4.1 10.35 4.05 10.9L4 12Q4 13.65 4.6 15.1Q5.2 16.55 6.3 17.65Q7.4 18.7 8.85 19.35Q10.3 20 12 20Q13.65 20 15.1 19.35Q16.55 18.7 17.65 17.65Q18.7 16.55 19.35 15.1Q20 13.65 20 12L19.9 10.9Q19.85 10.35 19.7 9.85L19.3 8.85L18.85 7.9L20.3 6.5Q20.7 7.1 21 7.75L21.55 9.1Q21.75 9.75 21.85 10.5Q22 11.25 22 12Q22 14.05 21.2 15.85Q20.4 17.7 19.05 19.05Q17.7 20.4 15.85 21.2Q14.05 22 12 22Q9.9 22 8.05 21.2Q6.25 20.4 4.9 19.05Q3.55 17.7 2.75 15.85Q2 14.05 2 12L2.1 10.5Q2.2 9.75 2.4 9.1Q2.6 8.4 2.9 7.75Q3.2 7.1 3.65 6.5" />
</g>
<g id="PathID_96" transform="matrix(-0.110203, 19.0817, -19.0817, -0.110203, 486.1, 28.4)" opacity="1">
</g>
<g id="PathID_97" transform="matrix(-6.76385e-008, 1.54739, -1.54739, -6.76385e-008, 276.85, 255.5)" opacity="1">
<path style="fill:#FFFFFF;fill-opacity:1" d="M8.6 -39.65L48.7 29.85Q50.5 32.95 49.9 36.45Q49.3 40.05 46.6 42.35Q43.8 44.65 40.2 44.65L-40.2 44.55Q-43.7 44.55 -46.5 42.25Q-49.2 39.95 -49.9 36.45Q-50.5 32.85 -48.7 29.75L-8.5 -39.75Q-6.7 -42.75 -3.4 -43.95Q0 -45.25 3.4 -43.95Q6.8 -42.75 8.6 -39.65" />
</g>
<g id="PathID_98" transform="matrix(-6.76385e-008, 1.54739, -1.54739, -6.76385e-008, 276.85, 255.5)" opacity="1">
</g>
</svg>
