<svg xmlns="http://www.w3.org/2000/svg" version="1.0" viewBox="0 0 5120 5120"><defs/><path fill="#e86027" d="M946 5104c-287-52-566-231-738-474-96-135-176-332-198-486-8-57-10-521-8-1634L5 955l23-80c102-352 316-611 628-762 61-29 156-66 210-81l99-27 1554-3c1366-2 1566-1 1644 13a1165 1165 0 01946 949c15 83 15 3109 0 3192-75 422-372 768-780 907-171 59-114 57-1778 56-1272-1-1539-3-1605-15z"/><g fill="#f3842d"><path d="M995 5113c-48-6-185-42-243-63a1181 1181 0 01-738-880C-6 4055-6 1070 14 955 100 478 481 98 956 15c130-23 3078-23 3208 0a1171 1171 0 01936 910c19 86 20 130 20 1005v915l-580-580-580-580 60 116c63 123 129 305 154 429 32 160 36 285 36 1131v849h-730v-281l-42 26a1812 1812 0 01-594 226c-227 40-533 24-739-39l-60-18-3-487c-1-268 0-487 3-487s30 18 59 40c66 50 184 105 273 127 91 22 275 22 366 0a799 799 0 00561-526c25-86 33-81-119-81-109 0-135 3-135 14 0 22-56 123-95 171a609 609 0 01-235 156c-91 31-230 31-319 0a523 523 0 01-352-563 543 543 0 01324-409l37-13v-133c0-103-3-133-13-133a798 798 0 00-589 550c-22 75-22 78-28 868l-5 792-95-61c-52-34-115-77-140-97-25-19 158 169 405 419l645 652 195 197-880-1c-484-1-893-4-910-6zm1692-2285c60-28 113-81 144-144 18-38 23-65 23-124 0-88-25-151-84-210s-122-85-210-84c-122 1-217 60-270 169-33 69-33 180-1 247 40 82 118 146 206 169 47 13 140 1 192-23zm649-338a797 797 0 00-282-532 820 820 0 00-424-174l-70-7v262l48 6c85 11 176 45 244 91a496 496 0 01216 339l16 85h259l-7-70zm454-1c0-85-30-241-66-341a1261 1261 0 00-607-689c-151-77-352-129-494-129h-64l3 128 3 127 86 7a940 940 0 01583 267 963 963 0 01301 639l7 62h248v-71zM4205 5090c11-5 29-8 40-8 16 0 15 2-5 8-34 11-60 11-35 0zM4290 5074c0-7 52-25 57-20 2 2-10 8-26 14-17 6-31 9-31 6zM4365 5042c6-4 164-163 353-353 188-189 342-342 342-339s-11 27-25 54-25 53-25 57c0 18-65 117-73 112-6-3-7-1-3 5 9 15-59 108-138 190-101 105-272 226-305 214-8-2-11 0-8 5 4 6-20 22-54 37-61 26-83 32-64 18z"/></g><path fill="#e9724e" d="M2425 4200c-105-9-235-33-320-58l-60-18-3-487c-1-268 0-487 3-487s30 18 59 40c66 50 184 105 273 127 91 22 275 22 366 0a799 799 0 00561-526c25-86 33-81-119-81-109 0-135 3-135 14 0 22-56 123-95 171a609 609 0 01-235 156c-91 31-230 31-319 0a523 523 0 01-352-563 543 543 0 01324-409l37-13v-133c0-103-3-133-13-133a798 798 0 00-589 550c-22 75-22 78-28 868l-5 794-125-83a1700 1700 0 01-574-660 1576 1576 0 01-158-709c0-451 162-841 481-1161a1636 1636 0 012296-27c290 276 463 634 504 1037 7 63 11 428 11 947v844l-365 2-365 3v-276l-42 26c-87 53-286 144-382 175-186 58-439 87-631 70zm262-1372c60-28 113-81 144-144 18-38 23-65 23-124 0-88-25-151-84-210s-122-85-210-84c-122 1-217 60-270 169-33 69-33 180-1 247 40 82 118 146 206 169 47 13 140 1 192-23zm649-338a797 797 0 00-282-532 820 820 0 00-424-174l-70-7v262l48 6c85 11 176 45 244 91a496 496 0 01216 339l16 85h259l-7-70zm454-1c0-85-30-241-66-341a1261 1261 0 00-607-689c-151-77-352-129-494-129h-64l3 128 3 127 86 7a940 940 0 01583 267 963 963 0 01301 639l7 62h248v-71z"/><path fill="#ed8b6f" d="M2280 4180c-58-11-134-28-170-38l-65-19-3-486c-1-268 0-487 3-487s26 16 52 36c65 50 169 100 260 126 62 18 104 22 203 22s141-4 203-22a791 791 0 00538-509c33-97 39-93-114-93h-133l-13 38a537 537 0 01-411 322 519 519 0 01-580-582 531 531 0 01292-393l67-30 1-132c0-152 4-147-93-114a779 779 0 00-458 406c-77 161-73 108-77 988-1 433-6 787-10 787-5 0-35-16-68-36a1713 1713 0 01-628-695 1576 1576 0 01-158-709c0-451 162-841 481-1161a1635 1635 0 012295-28c257 245 420 547 488 903 20 107 21 145 25 1019l4 907h-731v-135c0-74-2-135-3-135l-88 50a1732 1732 0 01-602 209c-124 17-385 12-507-9zm403-1348c58-26 123-91 150-151 33-72 30-179-7-254a297 297 0 00-476-77 297 297 0 00231 506c31-2 77-13 102-24zm657-306c0-55-26-175-53-248a791 791 0 00-659-495l-68-6v261l28 6 75 11a524 524 0 01412 458l6 47h259v-34zm455-23a1240 1240 0 00-1167-1177l-68-5v269h63c82 1 217 31 313 71 161 67 341 216 437 362a966 966 0 01153 422c10 126-5 115 144 115h130l-5-57z"/><path fill="#f7a669" d="M2323 4186c-120-20-264-57-269-70-2-6-3-223-2-483l3-472 65 44a785 785 0 001204-467l6-28h-275l-32 69a527 527 0 01-311 271 554 554 0 01-396-38 666 666 0 01-208-208 544 544 0 010-488c43-81 145-178 230-217l72-34v-273l-57 15a778 778 0 00-553 576c-19 78-20 120-20 850 0 422-4 767-8 767-20 0-223-143-302-212a1608 1608 0 01-475-724 1652 1652 0 010-1008c140-428 457-792 855-980a1643 1643 0 012294 1046c52 180 55 234 59 1191l5 887h-728v-281l-42 29c-128 88-370 185-556 223-126 26-439 35-559 15zm364-1354c63-33 111-79 141-136 23-44 27-63 27-136s-4-92-27-135c-31-60-77-104-138-136-64-34-196-34-257-1a310 310 0 00-164 349c24 90 116 185 205 213 51 16 166 6 213-18zm653-319c-1-157-81-345-204-480a794 794 0 00-532-253h-44v270h38a514 514 0 01472 466v44h270v-47zm455-35a1248 1248 0 00-1100-1148c-151-17-135-31-135 124v133l83 6a983 983 0 01697 386c104 142 176 331 187 494l6 87h270l-8-82z"/><path fill="#f4af90" d="M2323 4186c-120-20-264-57-269-70-2-6-3-223-2-483l3-472 65 44a785 785 0 001204-467l6-28h-275l-32 69a527 527 0 01-311 271 554 554 0 01-396-38 666 666 0 01-208-208 544 544 0 010-488c43-81 145-178 230-217l72-34v-273l-57 15a778 778 0 00-553 576c-19 78-20 120-20 850 0 422-4 767-8 767a1651 1651 0 01-824-1114c-19-87-22-131-22-326s3-239 22-326A1654 1654 0 012236 948c96-20 135-23 329-23 189 1 234 4 321 23a1657 1657 0 011286 1280c22 96 22 110 25 1035l4 937h-721v-281l-42 29c-128 88-370 185-556 223-126 26-439 35-559 15zm364-1354c63-33 111-79 141-136 23-44 27-63 27-136s-4-92-27-135c-31-60-77-104-138-136-64-34-196-34-257-1a310 310 0 00-164 349c24 90 116 185 205 213 51 16 166 6 213-18zm653-319c-1-157-81-345-204-480a794 794 0 00-532-253h-44v270h38a514 514 0 01472 466v44h270v-47zm455-35a1248 1248 0 00-1100-1148c-151-17-135-31-135 124v133l83 6a983 983 0 01697 386c104 142 176 331 187 494l6 87h270l-8-82z"/><path fill="#f4bbaa" d="M2345 4189c-79-10-276-57-288-68-4-4-6-222-5-484l3-476 64 44c75 53 188 101 280 121 85 18 237 18 323-1a790 790 0 00587-539l21-72c0-2-62-4-137-4h-138l-34 73a533 533 0 01-341 276c-25 6-79 11-120 11-143 0-259-48-360-150a508 508 0 01-94-598c40-82 145-183 233-224l71-33v-137c0-76-2-138-4-138-17 0-151 47-191 67a822 822 0 00-382 413c-52 131-53 137-53 963 0 422-4 767-8 767a1660 1660 0 01-828-1145c-27-141-27-449 0-590A1650 1650 0 012240 949c143-31 463-34 615-5a1649 1649 0 011261 1093c81 241 77 185 81 1231l4 932h-721v-280l-57 37c-140 89-353 174-538 213-115 24-421 35-540 19zm350-1362c65-33 108-79 141-150 22-50 26-69 22-130-5-114-61-201-163-255-43-23-62-27-135-27-70 0-93 4-130 24-61 32-107 76-138 136-23 43-27 62-27 135 0 70 4 93 24 130 41 79 105 133 191 161 49 16 162 4 215-24zm645-320c0-170-106-388-254-523a767 767 0 00-478-204h-48v270h38c150 1 337 121 414 266 32 59 58 152 58 206v38h270v-53zm456-34a1241 1241 0 00-1150-1148l-86-7v269l83 6c203 16 410 106 571 248 171 151 296 406 313 637l6 82h270l-7-87z"/><path fill="#fac49b" d="M2395 4194c-106-15-229-39-282-56l-63-19v-480c0-382 3-479 13-473l57 40a709 709 0 00405 131c240 10 415-58 586-227a770 770 0 00213-372l6-28h-275l-33 71a573 573 0 01-223 232 511 511 0 11-416-932l27-11v-140c0-77-2-140-4-140l-72 21a786 786 0 00-534 563c-19 76-20 109-20 853 0 425-2 773-5 773-11 0-146-87-215-139-107-80-254-231-332-341a1752 1752 0 01-284-665c-27-141-27-449 0-590A1650 1650 0 012240 949c143-31 463-34 615-5 213 39 444 134 625 256 353 238 592 596 691 1035 23 99 23 106 26 1033l4 932h-711v-133c0-74-3-136-6-140-3-3-31 11-62 30-145 93-357 175-549 214-104 20-397 35-478 23zm271-1351c33-11 67-34 105-72 64-64 89-124 89-211s-25-147-89-211a296 296 0 00-317-72 336 336 0 00-178 181c-25 73-19 171 14 236 30 60 106 129 163 149 57 21 153 21 213 0zm674-334c0-83-29-188-82-299-45-93-61-115-147-200a591 591 0 00-191-143 770 770 0 00-307-87h-53v270h30c53 0 134 22 200 53a526 526 0 01280 420v37h270v-51zm456-35a1241 1241 0 00-1149-1150l-87-7v273h39a970 970 0 01928 887l6 83h270l-7-86z"/><path fill="#f8cbb4" d="M2395 4194c-106-15-229-39-282-56l-63-19v-480c0-382 3-479 13-473l57 40a709 709 0 00405 131c240 10 415-58 586-227a770 770 0 00213-372l6-28h-275l-33 71a573 573 0 01-223 232 511 511 0 11-416-932l27-11v-140c0-77-2-140-4-140l-72 21a786 786 0 00-534 563c-19 76-20 109-20 853 0 425-2 773-5 773l-72-41a1655 1655 0 01-702-884c-61-185-75-278-75-515 0-186 3-229 23-320a1640 1640 0 012771-840c225 226 377 507 451 835 23 99 23 106 26 1033l4 932h-711v-133c0-74-3-136-6-140-3-3-31 11-62 30-145 93-357 175-549 214-104 20-397 35-478 23zm271-1351c33-11 67-34 105-72 64-64 89-124 89-211s-25-147-89-211a296 296 0 00-317-72 336 336 0 00-178 181c-25 73-19 171 14 236 30 60 106 129 163 149 57 21 153 21 213 0zm674-334c0-83-29-188-82-299-45-93-61-115-147-200a591 591 0 00-191-143 770 770 0 00-307-87h-53v270h30c53 0 134 22 200 53a526 526 0 01280 420v37h270v-51zm456-35a1241 1241 0 00-1149-1150l-87-7v273h39a970 970 0 01928 887l6 83h270l-7-86z"/><path fill="#fbe0d6" d="M2340 4185c-89-12-183-33-257-56l-33-11v-960l49 36c69 51 202 111 288 130 92 20 253 21 346 0 40-8 119-38 177-66 93-45 115-61 200-147 78-78 105-113 142-186 38-74 78-182 78-209 0-3-63-6-139-6h-139l-36 76a509 509 0 11-683-681l77-38v-277l-27 6a745 745 0 00-374 214 549 549 0 00-147 200c-85 176-82 143-82 1019 0 424-3 771-6 771s-45-25-92-56a1635 1635 0 01-734-1077c-32-161-33-453 0-613A1646 1646 0 012276 944c140-26 431-26 569 0a1642 1642 0 011344 1426c7 53 11 407 11 957v873h-710v-140c0-77-2-140-5-140-2 0-35 19-72 42a1672 1672 0 01-1073 223zm323-1341c57-19 129-81 165-142 24-42 27-57 27-142s-3-100-27-142a309 309 0 00-268-158c-87 0-147 25-211 89a296 296 0 00-72 317c22 64 110 154 173 177 59 20 155 21 213 1zm676-363c-9-104-31-177-87-286-37-73-64-108-142-186a549 549 0 00-200-147 734 734 0 00-299-82h-51v270h33c103 0 247 67 332 154 83 85 145 223 145 323v33h276l-7-79zm458-9c-22-300-150-578-367-792a1214 1214 0 00-690-345c-52-8-114-15-137-15h-43v270h39a980 980 0 01880 657c24 71 51 217 51 274v39h273l-6-88z"/><path fill="#fff" d="M2394 4190c-88-9-221-36-291-57l-53-17v-955l72 49a752 752 0 00448 133 777 777 0 00760-629c0-11-26-14-137-14l-138 1-37 78a517 517 0 01-458 291 520 520 0 01-510-510c0-191 116-373 292-458l78-37v-137c0-111-3-138-14-138-32 0-155 44-216 77a803 803 0 00-391 493c-23 75-23 78-27 853-1 427-5 777-8 777a1649 1649 0 01-816-1131c-32-163-32-435 0-598 53-266 149-480 308-690a1632 1632 0 012497-131c208 219 345 482 414 794l27 121 3 923 4 922h-711v-140c0-77-3-140-6-140-4 0-32 15-63 34a1657 1657 0 01-1027 236zm285-1350c73-34 118-76 152-146 27-54 32-76 32-134 0-172-131-302-303-302-123 0-226 67-278 180-67 148 1 328 152 398 67 31 180 33 245 4zm666-347a795 795 0 00-717-716l-68-6v274l78 13a507 507 0 01424 425l13 77h277l-7-67zm455 8c0-140-65-378-141-521a1253 1253 0 00-1046-660h-53v268l78 7a967 967 0 01618 296 965 965 0 01270 596l7 73h267v-59z"/></svg>