<?xml version="1.0" encoding="UTF-8"?>
<svg width="512px" height="512px" viewBox="0 0 512 512" version="1.1" xmlns="http://www.w3.org/2000/svg" xmlns:xlink="http://www.w3.org/1999/xlink">
    <!-- Generator: Sketch 64 (93537) - https://sketch.com -->
    <title>ic/pcg/on_white</title>
    <desc>Created with Sketch.</desc>
    <defs>
        <path d="M326.124696,232.13005 C330.149691,232.13005 333.412594,235.392953 333.412594,239.417947 L333.412594,239.417947 L333.412594,263.391354 C333.412594,304.178721 302.226093,337.681866 262.397768,341.356116 L262.352309,382.779456 C262.347942,386.806322 259.079982,390.067201 255.053116,390.062838 C251.026251,390.058466 247.765372,386.790506 247.769735,382.76364 L247.769735,382.76364 L247.814216,341.354732 C207.993053,337.673462 176.814375,304.173605 176.814375,263.391354 L176.814375,263.391354 L176.814375,239.417947 C176.814375,235.392953 180.077278,232.13005 184.102273,232.13005 C188.127267,232.13005 191.39017,235.392953 191.39017,239.417947 L191.39017,239.417947 L191.39017,263.391354 C191.39017,298.584881 219.919957,327.114668 255.113485,327.114668 L254.968375,327.112939 L255.121393,327.111276 C255.161997,327.111321 255.202523,327.111696 255.242969,327.112402 C290.376871,327.044756 318.836799,298.541767 318.836799,263.391354 L318.836799,263.391354 L318.836799,239.417947 C318.836799,235.392953 322.099702,232.13005 326.124696,232.13005 Z M300.435479,224.217604 L300.435479,262.823337 C300.435479,287.884388 280.120719,308.199148 255.061929,308.199148 C230.000877,308.199148 209.686117,287.884388 209.686117,262.823337 L209.686117,262.823337 L209.686117,224.217604 L300.435479,224.217604 Z M255.060346,125.518939 C280.121397,125.518939 300.436158,145.8337 300.436158,170.894751 L300.436158,170.894751 L300.436158,209.500483 L209.686796,209.500483 L209.686796,170.894751 C209.686796,145.8337 230.001556,125.518939 255.060346,125.518939 Z" id="path-1"></path>
        <filter x="-35.1%" y="-13.2%" width="170.2%" height="141.6%" filterUnits="objectBoundingBox" id="filter-2">
            <feOffset dx="0" dy="20" in="SourceAlpha" result="shadowOffsetOuter1"></feOffset>
            <feGaussianBlur stdDeviation="15" in="shadowOffsetOuter1" result="shadowBlurOuter1"></feGaussianBlur>
            <feColorMatrix values="0 0 0 0 0   0 0 0 0 0   0 0 0 0 0  0 0 0 0.453725962 0" type="matrix" in="shadowBlurOuter1"></feColorMatrix>
        </filter>
    </defs>
    <g id="ic/pcg/on_white" stroke="none" stroke-width="1" fill="none" fill-rule="evenodd">
        <g id="icon/app_icon/white">
            <path d="M255.033711,133.564307 C255.032535,133.564357 304.466933,78.4816386 408.986489,101.079802 C442.776555,195.66565 376.5682,254.974426 376.501983,255.033711 C376.501934,255.032535 431.584652,304.466933 408.986489,408.986489 C314.40308,442.776555 255.091867,376.5682 255.03258,376.501983 C255.033755,376.501934 205.599358,431.584652 101.079802,408.986489 C67.2897359,314.40308 133.49809,255.091867 133.564307,255.03258 C133.564357,255.033755 78.4816386,205.599358 101.079802,101.079802 C195.66565,67.2897359 254.974426,133.49809 255.033711,133.564307 Z" id="Combined-Shape-Copy-2" fill="#FFFFFF" fill-rule="evenodd"></path>
            <path d="M255.033511,255.033755 L340.924588,340.924832 C340.924588,340.924832 344.91867,414.83122 255.033511,472.756398 C164.211439,429.746203 169.142435,340.924832 169.142435,340.924832 L255.033511,255.033755 Z M472.756398,255.033511 C429.748643,345.853144 340.924832,340.924588 340.924832,340.924588 L255.033755,255.033511 L340.924832,169.142435 L341.0128,169.138425 C343.874695,169.020223 415.989723,166.946056 472.756398,255.033511 Z M169.142191,340.924588 C169.142191,340.924588 95.2358027,344.91867 37.3106248,255.033511 C80.3183798,164.211439 169.142191,169.142435 169.142191,169.142435 L169.138425,169.054223 C169.020223,166.192328 166.946056,94.0772992 255.033511,37.3106248 C345.853144,80.3183798 340.924588,169.142191 340.924588,169.142191 L169.142191,340.924588 Z" id="Combined-Shape-Copy" fill="#FFFFFF" fill-rule="evenodd"></path>
            <path d="M101.079802,408.986489 C67.2728324,314.355764 133.564357,255.032535 133.564357,255.032535 L255.033755,255.032535 L255.033755,376.501934 C255.033755,376.501934 205.599358,431.584652 101.079802,408.986489" id="Fill-12" fill-opacity="0.44" fill="#1CC1EA" fill-rule="evenodd"></path>
            <path d="M408.986489,408.986489 C314.355764,442.793458 255.032535,376.501934 255.032535,376.501934 L255.032535,255.032535 L376.501934,255.032535 C376.501934,255.032535 431.584652,304.466933 408.986489,408.986489" id="Fill-17" fill-opacity="0.44" fill="#E0E900" fill-rule="evenodd"></path>
            <path d="M408.986489,101.079802 C442.793458,195.712966 376.501934,255.033755 376.501934,255.033755 L255.032535,255.033755 L255.032535,133.564357 C255.032535,133.564357 304.466933,78.4816386 408.986489,101.079802" id="Fill-3" fill-opacity="0.44" fill="#EB1212" fill-rule="evenodd"></path>
            <path d="M101.079802,101.079802 C195.712966,67.2728324 255.033755,133.564357 255.033755,133.564357 L255.033755,255.033755 L133.564357,255.033755 C133.564357,255.033755 78.4816386,205.599358 101.079802,101.079802" id="Fill-8" fill-opacity="0.44" fill="#9C27B0" fill-rule="evenodd"></path>
            <path d="M37.3106248,255.033511 C80.3183798,164.211439 169.142191,169.142435 169.142191,169.142435 L255.033267,255.033511 L169.142191,340.924588 C169.142191,340.924588 95.2358027,344.91867 37.3106248,255.033511" id="Fill-10" fill-opacity="0.44" fill="#1549E3" fill-rule="evenodd"></path>
            <path d="M255.033511,472.756398 C164.211439,429.746203 169.142435,340.924832 169.142435,340.924832 L255.033511,255.033755 L340.924588,340.924832 C340.924588,340.924832 344.91867,414.83122 255.033511,472.756398" id="Fill-14" fill-opacity="0.44" fill="#1ADC4A" fill-rule="evenodd"></path>
            <path d="M472.756398,255.033511 C429.748643,345.853144 340.924832,340.924588 340.924832,340.924588 L255.033755,255.033511 L340.924832,169.142435 C340.924832,169.142435 414.83122,165.148352 472.756398,255.033511" id="Fill-1" fill-opacity="0.44" fill="#F8A007" fill-rule="evenodd"></path>
            <path d="M255.033511,37.3106248 C345.853144,80.3183798 340.924588,169.142191 340.924588,169.142191 L255.033511,255.033267 L169.142435,169.142191 C169.142435,169.142191 165.148352,95.2358027 255.033511,37.3106248" id="Fill-5" fill-opacity="0.44" fill="#CF186E" fill-rule="evenodd"></path>
            <g id="Mic-Shape" fill-rule="nonzero">
                <use fill="black" fill-opacity="1" filter="url(#filter-2)" xlink:href="#path-1"></use>
                <use fill="#FFFFFF" xlink:href="#path-1"></use>
            </g>
        </g>
    </g>
</svg>