<svg xmlns="http://www.w3.org/2000/svg" viewBox="0 0 1024 1024"><rect width="993.6" height="993.6" x="15" y="15" fill="#00a4ff" rx="89.5"/><path d="M919 1024H105A105 105 0 010 919V105A105 105 0 01105 0h814a105 105 0 01105 105v814a105 105 0 01-105 105zM105 30a74 74 0 00-75 75v814a74 74 0 0075 75h814a74 74 0 0075-75V105a74 74 0 00-75-75z"/><path fill="#ff00b7" d="M135 667h754s-38 251-377 251-377-251-377-251z"/><path d="M290 869a280 280 0 01-153-194q87-5 174-7c41-1 91-9 131 0-41 21-78 37-107 75a220 220 0 00-33 60c-3 7-19 62-12 66zM504 809c-1 8-1 17 6 21 5 2 11 0 15-5s5-10 7-15c17-58 53-103 96-143-25 2-58-2-77 19-28 32-42 82-47 123z"/><path d="M259 781c23 0 44-59 51-105h-94c4 45 21 105 43 105zM765 781c22 0 39-60 43-105h-94c7 46 28 105 51 105z" fill="#fff"/><path d="M512 936c-182 0-279-72-329-132-55-66-65-131-65-134l-3-20h794l-3 20c0 3-11 68-65 134-50 60-147 132-329 132zM156 685c17 57 88 216 356 216 265 0 338-159 355-216z"/><circle cx="512" cy="400.2" r="180.9" fill="#00a397"/><circle cx="512" cy="400.2" r="93.2"/><circle cx="590.5" cy="349.1" r="51.8" fill="#fff"/><path d="M510 120c308 0 328 296 328 296s22 162-89 162H494" fill="#fff"/><path d="M514 120c-308 0-328 296-328 296s-22 162 89 162h255" fill="#fff"/><circle cx="512" cy="400.2" r="180.9" fill="#00a397"/><circle cx="512" cy="400.2" r="93.2"/><circle cx="590.5" cy="349.1" r="51.8" fill="#fff"/><path d="M855 415c-1-17-32-309-341-312h-4c-309 3-340 295-341 312-1 8-12 99 32 149 18 21 43 32 74 32h474c31 0 56-11 74-32 44-50 33-141 32-149zm-58 126a60 60 0 01-48 20H275c-20 0-36-7-48-20-34-39-24-122-24-122v-1c1-12 23-279 309-281 286 2 308 269 309 281v1c3 23 5 89-24 122z"/></svg>