<svg xmlns="http://www.w3.org/2000/svg" version="1.0" viewBox="0 0 167 167"><defs/><path fill="#0c7bb3" stroke="#000" d="M21 24h132v129H21z"/><path d="M0 84v83h167V0H0v84zm97-49c15 4 29 18 34 34 2 6 2 9 2 16-1 11-3 17-8 25l-5 10c-3 6-7 10-13 12l-3 1c-1-1 9-35 10-36s2 0 3 2l3 2 1-2c4-11 4-22-1-32-7-15-20-24-37-24-28 0-47 28-37 56l1 2 2-3 4-2 10 36h-2c-7-2-11-5-14-12l-6-10c-4-8-6-14-7-25 0-7 0-10 2-16 8-26 34-41 60-34zM64 93c3 2 11 34 10 37-1 2-6 4-7 2L56 92c1-1 5-1 8 1zm47-1c0 2-10 40-12 41 0 1-5-1-6-3-2-2 7-34 10-37 2-2 7-3 8-1z"/></svg>