<svg width="168" height="168" xmlns="http://www.w3.org/2000/svg">

 <g>
  <title>Layer 1</title>
  <rect id="svg_2" height="100" width="125" y="35.5" x="21.5" fill="#ffffff"/>
  <path id="svg_1" d="m83.996,0.277c-46.249,0 -83.743,37.493 -83.743,83.742c0,46.251 37.494,83.741 83.743,83.741c46.254,0 83.744,-37.49 83.744,-83.741c0,-46.246 -37.49,-83.738 -83.745,-83.738l0.001,-0.004zm38.404,120.78c-1.5,2.46 -4.72,3.24 -7.18,1.73c-19.662,-12.01 -44.414,-14.73 -73.564,-8.07c-2.809,0.64 -5.609,-1.12 -6.249,-3.93c-0.643,-2.81 1.11,-5.61 3.926,-6.25c31.9,-7.291 59.263,-4.15 81.337,9.34c2.46,1.51 3.24,4.72 1.73,7.18zm10.25,-22.805c-1.89,3.075 -5.91,4.045 -8.98,2.155c-22.51,-13.839 -56.823,-17.846 -83.448,-9.764c-3.453,1.043 -7.1,-0.903 -8.148,-4.35c-1.04,-3.453 0.907,-7.093 4.354,-8.143c30.413,-9.228 68.222,-4.758 94.072,11.127c3.07,1.89 4.04,5.91 2.15,8.976l0,-0.001zm0.88,-23.744c-26.99,-16.031 -71.52,-17.505 -97.289,-9.684c-4.138,1.255 -8.514,-1.081 -9.768,-5.219c-1.254,-4.14 1.08,-8.513 5.221,-9.771c29.581,-8.98 78.756,-7.245 109.83,11.202c3.73,2.209 4.95,7.016 2.74,10.733c-2.2,3.722 -7.02,4.949 -10.73,2.739l-0.004,0z" fill="#1ED760"/>
  <rect id="svg_3" height="0" width="1" y="-83.5" x="-286.5" fill="#ffffff"/>
 </g>
</svg>