<?xml version="1.0" encoding="UTF-8" standalone="no"?>
<!DOCTYPE svg PUBLIC "-//W3C//DTD SVG 1.1//EN" "http://www.w3.org/Graphics/SVG/1.1/DTD/svg11.dtd">
<svg version="1.1" xmlns="http://www.w3.org/2000/svg" xmlns:xlink="http://www.w3.org/1999/xlink" preserveAspectRatio="xMidYMid meet" viewBox="140 140 360 360" width="140" height="140"><defs><path d="M402.75 440.17C394.49 440.17 387.78 433.45 387.78 425.19C387.78 416.93 394.49 410.22 402.75 410.22C411.01 410.22 417.72 416.93 417.72 425.19C417.72 433.45 411.01 440.17 402.75 440.17M237.25 440.17C228.99 440.17 222.28 433.45 222.28 425.19C222.28 416.93 228.99 410.22 237.25 410.22C245.51 410.22 252.22 416.93 252.22 425.19C252.22 433.45 245.51 440.17 237.25 440.17M408.12 349.97C426.07 318.88 436.05 301.6 438.04 298.14C439.76 295.17 438.74 291.36 435.77 289.64C432.79 287.92 428.98 288.95 427.26 291.92C424.23 297.17 399.99 339.15 396.96 344.4C373.79 333.83 347.77 327.94 320 327.94C292.23 327.94 266.21 333.83 243.04 344.4C240.01 339.15 215.77 297.17 212.74 291.92C211.02 288.95 207.21 287.92 204.23 289.64C201.26 291.36 200.24 295.17 201.96 298.14C204.95 303.33 228.89 344.79 231.88 349.97C180.5 377.92 145.35 429.94 140.21 491.4C176.17 491.4 463.83 491.4 499.79 491.4C494.64 429.94 459.5 377.92 408.12 349.97" id="f2VCTC6VSf"></path><path d="M499.79 131.4C499.79 131.4 499.79 131.4 499.79 131.4C499.79 347.4 499.79 467.4 499.79 491.4C499.79 491.4 499.79 491.4 499.79 491.4C283.79 491.4 163.79 491.4 139.79 491.4C139.79 491.4 139.79 491.4 139.79 491.4C139.79 275.4 139.79 155.4 139.79 131.4C139.79 131.4 139.79 131.4 139.79 131.4C355.79 131.4 475.79 131.4 499.79 131.4Z" id="c8t5AXCrQ"></path></defs><g><use xlink:href="#f2VCTC6VSf" opacity="1" fill="#3ddb85" fill-opacity="1"></use></g></svg>
