<?xml version="1.0" encoding="utf-8"?>
<svg version="1.1" id="Layer_1" xmlns="http://www.w3.org/2000/svg" xmlns:xlink="http://www.w3.org/1999/xlink" x="0px" y="0px"
	 viewBox="0 0 500 500" enable-background="new 0 0 500 500" xml:space="preserve">
<path fill="#1976D2" d="M327.6,490.9c0.2,5.1,3.2,6.3,6.3,2.4l161-187.1c3.4-3.9,1.9-7.1-3.4-7.3l-166.1-1.7c-5.1,0-9,4.1-8.8,9.5
	L327.6,490.9z"/>
<path fill-rule="evenodd" clip-rule="evenodd" fill="#1976D2" d="M493.5,270.2c5.4,0,6.3-2.7,2.2-6.3L188.9,2.2
	c-3.9-3.2-6.3-1.7-5.4,3.4l44,253.5c1,5.1,5.6,9.2,10.7,9.2L493.5,270.2z M242.7,227.9c-0.2-5.1,1.2-9.5,4.6-13.1
	c3.2-3.6,7.3-5.4,11.9-5.6c4.9-0.2,9.2,1.5,12.6,4.9c3.6,3.4,5.6,7.8,5.8,12.6c0.2,5.1-1.2,9.5-4.6,13.1c-3.2,3.6-7.1,5.6-11.9,5.6
	c-4.9,0.2-9-1.5-12.6-4.9S242.9,232.8,242.7,227.9z M239.3,155.7h1c48.4,4.6,78.6,32.8,90,84.9l0.5,2.2l-25.5,0.7
	c-8.8-37-30.2-57.4-64.7-61.5L239.3,155.7z M374,241.3l-25.3,1l-0.5-1.7c-12.9-65.4-49.6-99.7-110-103.4l-1.2-26h1.5
	c73.7,3.6,118.5,45.2,134.3,124.8L374,241.3z"/>
<path fill="#1976D2" d="M2.6,200.4c-3.2,3.9-1.7,6.6,2.9,6.1L178.2,187c4.9-0.5,8.3-5.1,7.3-10.2L157.8,16.5c-1-5.1-4.4-5.8-7.5-1.9
	L2.6,200.4z"/>
<path fill="#1976D2" d="M226.9,296.3c-4.9,0-11.9-0.7-15.6-1.5l-2.2-1.9l-2.4-2.2c-1.2-3.4-3.2-10.5-3.9-15.3l-9.2-52.5
	c-0.7-4.9-5.6-8.8-10.5-8L7.4,234c-4.9,0.5-5.6,3.4-1.9,6.8l288,255.4c3.9,3.4,6.8,1.9,6.3-3.2l-11.2-186.8
	c-0.2-5.1-4.6-9.2-9.7-9.5L226.9,296.3z"/>
</svg>