<?xml version="1.0" standalone="no"?>
<!DOCTYPE svg PUBLIC "-//W3C//DTD SVG 20010904//EN"
 "http://www.w3.org/TR/2001/REC-SVG-20010904/DTD/svg10.dtd">
<svg version="1.0" xmlns="http://www.w3.org/2000/svg"
 width="260.000000pt" height="260.000000pt" viewBox="0 0 260.000000 260.000000"
 preserveAspectRatio="xMidYMid meet">
<metadata>
Created by potrace 1.14, written by Peter Selinger 2001-2017
</metadata>
<g transform="translate(0.000000,260.000000) scale(0.100000,-0.100000)"
fill="#000000" stroke="none">
<path d="M1120 2454 c-102 -59 -205 -118 -230 -132 -25 -14 -69 -40 -97 -58
-29 -19 -53 -31 -53 -27 0 3 -8 -1 -17 -9 -10 -8 -92 -57 -183 -109 -91 -51
-167 -96 -170 -99 -3 -3 -35 -21 -73 -40 -37 -19 -78 -45 -90 -56 l-24 -22 0
-638 -1 -639 27 -22 c14 -12 29 -22 33 -23 3 0 73 -39 155 -86 81 -48 164 -96
183 -106 74 -42 121 -69 295 -171 185 -108 228 -132 305 -175 25 -13 49 -28
55 -33 5 -5 33 -9 63 -9 52 0 61 4 172 67 19 12 73 42 120 69 47 26 87 51 88
56 2 4 8 8 13 8 5 0 53 25 107 57 53 31 138 79 187 108 252 145 430 248 434
251 2 2 5 295 5 650 l1 645 -175 101 c-96 56 -187 110 -202 120 -16 11 -28 16
-28 12 0 -4 -8 0 -17 8 -10 9 -36 25 -58 37 -22 12 -47 26 -55 31 -14 10 -201
118 -285 165 -22 13 -80 47 -130 76 -49 28 -108 63 -130 75 l-41 23 -184 -105z"/>
</g>
</svg>
